<?xml version="1.0" encoding="UTF-8"?>
<svg id="Capa_2" xmlns="http://www.w3.org/2000/svg" viewBox="0 0 685.1 485.42">
  <defs>
    <style>
      .cls-1, .cls-2 {
        font-family: CampanaScriptPERSONALUSE-Regular, 'Campana Script PERSONAL USE';
        font-size: 216.86px;
      }

      .cls-3 {
        letter-spacing: 0em;
      }

      .cls-4, .cls-2 {
        fill: #fff;
      }

      .cls-5 {
        letter-spacing: 0em;
      }

      .cls-6 {
        fill: gray;
      }
    </style>
  </defs>
  <g id="Capa_2-2" data-name="Capa_2">
    <g id="Logo_4">
      <g>
        <path class="cls-6" d="M337.46,124.94l-2.69,11.18c-8.06,11.28-15.05,28.49-19.99,51.06-7.89,36.4-20.81,58.06-40.25,61.5-10.12,1.78-17.55-1.26-21.82-6.09,4.36,2.71,10.35,4.01,17.79,2.7,19.42-3.42,32.34-25.08,40.23-61.48,6.27-28.66,15.85-48.69,26.73-58.87Z"/>
        <path class="cls-6" d="M376.59,208.12c-4.76,9.39-9.64,15.22-14.55,16.08-3.72.65-6.53-.88-8.15-3.62,1.2.4,2.58.51,4.13.24,3.91-.69,7.81-4.55,11.64-10.87,1.12-.64,2.62-2.47,4.3-5.26.73,1.31,1.6,2.46,2.64,3.43Z"/>
        <path class="cls-6" d="M350.96,172.32c0,1.58-.24,3.54-.81,5.94-.06.3-.12.64-.21.99t-.01.03c-2.59,4.74-4.8,11.81-6.28,18l-.05-.2-7.63,30.41-14.09,2.49,1.03-4.27,9.03-1.6,7.63-30.41.05.2c2.22-9.32,6.13-20.6,10.4-22.96l-1.29,5.19c.72-1.32,1.46-2.59,2.23-3.81Z"/>
        <path class="cls-6" d="M435.48,162.38c-9.08,34.63-23.46,53.03-38.19,55.63-6.37,1.12-10.97-.77-13.94-4.54,2.63,1.38,5.93,1.86,9.91,1.15,7.7-1.36,15.31-7.04,22.12-17.11v-.02c6.66-6.48,12.66-18.14,17.78-35.81.99-.61,1.91-.33,2.32.69Z"/>
        <path class="cls-6" d="M139.47,393.75c-14.22,2.95-26.58-2.14-38.17-6.69-6.86,9.8-14.86,15.6-24.91,17.38-8.12,1.2-13.77-1.11-16.8-4.86,3.16,1.65,7.43,2.35,12.78,1.48,10.05-1.64,18.03-7.58,24.89-17.38,11.6,4.55,23.94,9.64,38.18,6.69,40.06-8.22,55.16-50.5,38.56-68.29,22.64,14.95,8.4,62.86-34.53,71.67Z"/>
        <path class="cls-6" d="M223.4,357.05c-4.92,8.75-10.35,14.27-16.56,15.35-3.95.7-6.91-.86-8.67-3.69,1.36.49,2.91.61,4.64.31,5.56-.96,10.48-5.49,14.99-12.69.9-.81,1.82-1.89,2.78-3.18.75,1.56,1.7,2.88,2.82,3.9Z"/>
        <path class="cls-6" d="M272.04,315.43c-1.51,5.25-2.86,9.78-3.87,12.88-1.15,3.7-1.62,7.23-1.43,10.4-5.73,15.28-16.24,26.33-27.51,27.55-4.03.41-7.13-1.17-9.29-4.14,1.52.69,3.29.97,5.26.76,12.98-1.36,24.95-15.86,29.76-34.76,1.04-4.14,1.67-8,1.96-11.35,1.76-.18,3.48-.63,5.12-1.33Z"/>
        <path class="cls-6" d="M300.56,346.37l-.24.98c-4.07,6.21-8.13,10-11.91,10.67-4.93.86-8.67-.81-10.97-4.07,1.94.89,4.28,1.16,6.94.69,3.78-.67,7.84-4.46,11.91-10.67l-.79,3.29,5.06-.89Z"/>
        <path class="cls-6" d="M355.2,300.8h0c-.85,2.7-1.47,5.4-1.87,8.03l-.98,3.98s0,.01-.01.02c-2.99,6.58-5.86,11.4-7.93,13.5.05-.83.16-1.72.37-2.62l5.53-22.33c2-7.83,1.96-13.73.18-17.22,4.63,1.22,6.43,7.13,4.71,16.62Z"/>
        <path class="cls-6" d="M358.27,332.17c-4.76,9.4-9.64,15.22-14.54,16.1-3.74.66-6.53-.89-8.16-3.63,1.2.42,2.58.52,4.13.25,3.91-.7,7.81-4.55,11.64-10.87,1.11-.63,2.61-2.47,4.3-5.26.73,1.3,1.6,2.44,2.63,3.41Z"/>
        <path class="cls-6" d="M332.65,296.37c.02,1.58-.24,3.54-.81,5.95-.06.32-.14.65-.22,1.02-2.59,4.74-4.81,11.8-6.28,18l-.05-.22-7.63,30.41-14.1,2.49,1.03-4.27,9.04-1.6,7.63-30.41.03.21c2.2-9.3,6.13-20.59,10.4-22.96l-1.29,5.2c.72-1.33,1.47-2.61,2.25-3.82Z"/>
        <path class="cls-6" d="M434.69,322.73l-.46,1.92v.02c-4.03,5.62-8.37,9.12-13.19,9.98-3.72.65-6.89-1.07-8.96-3.95,1.47.65,3.14.89,4.93.57,4.81-.85,9.14-4.35,13.16-9.96l-.56,2.32,5.07-.89Z"/>
        <path class="cls-6" d="M402.6,321.49c-6.07,10.98-14,18.87-23.63,20.57-6.37,1.12-10.95-.76-13.94-4.51,2.63,1.37,5.92,1.84,9.89,1.14,8.53-1.49,15.71-7.82,21.47-16.87,1.78-1.83,3.41-4.02,4.91-6.51.01,2.19.47,4.32,1.29,6.19Z"/>
        <path class="cls-6" d="M491.63,309.99c-4.51,8.53-9.14,13.8-13.79,14.63-3.72.65-6.53-.89-8.16-3.63,1.2.42,2.58.52,4.13.25,3.91-.7,7.81-4.55,11.62-10.86.01,0,.01-.02.01-.02.94-.52,2.12-1.87,3.45-3.9.75,1.4,1.66,2.59,2.73,3.52Z"/>
        <path class="cls-6" d="M466.76,272.74c0,1.58-.24,3.54-.81,5.94-.06.3-.13.61-.2.96h0c-2.6,4.75-4.83,11.84-6.3,18.07l-.03-.22-7.64,30.41-14.09,2.49,1.03-4.27,9.03-1.6,7.63-30.41.05.2c2.22-9.32,6.13-20.6,10.4-22.98l-1.29,5.22c.72-1.32,1.46-2.59,2.23-3.81Z"/>
        <path class="cls-6" d="M536.71,271.49c-2.13,7.28-2.72,14.18-1.86,19.72-5.71,15.4-16.28,26.55-27.61,27.78-4.03.41-7.13-1.17-9.29-4.14,1.52.7,3.28.97,5.26.76,12.98-1.36,24.95-15.84,29.76-34.75,1.04-4.15,1.67-8,1.96-11.35.86-.09,1.69-.25,2.53-.47-.26.8-.51,1.63-.76,2.45Z"/>
        <path class="cls-6" d="M580.74,287.87c-6,12.69-15.42,21.56-25.45,22.65-4.03.41-7.13-1.17-9.29-4.14,1.52.7,3.28.97,5.26.76,12.75-1.34,24.55-15.35,29.5-33.79-1.1,5.64-1.1,10.65-.03,14.52Z"/>
        <path class="cls-6" d="M661.49,243.35c-8.73,30.39-20.25,52.46-29.87,54.15-4.96.87-8.72-.81-11.03-4.07,1.94.88,4.3,1.16,7,.69,4.04-.71,8.41-5.02,12.77-12.03,5.41-4.94,13.68-20.8,18.8-39.43.74-.8,2.32-.64,2.33.69Z"/>
        <path class="cls-6" d="M614.39,288.7c-3.87,7.48-8.3,12.86-14.25,13.91-4.28.76-7.5-.73-9.53-3.82,1.58.64,3.42.82,5.5.44,4.93-.86,8.81-4.71,12.2-10.23,1.16-.43,2.41-1.49,3.7-3.12.65,1.11,1.45,2.05,2.38,2.82Z"/>
      </g>
      <path class="cls-6" d="M493.84,359.96s-1.55,16.68-30.01,21.58c-28.47,4.9-112.44,11.65-155.6,17.23-43.15,5.57-56.61,13.38-78.68,15.61l.58-3.02c19.58-2.76,34.03-9.87,74.14-15.05,43.15-5.58,127.13-12.33,155.59-17.23,18.99-3.26,26-11.78,28.56-17.08,3.15-1.05,5.42-2.04,5.42-2.04Z"/>
      <path class="cls-4" d="M214.78,400.11s17.12-14.14,93.05-23.49c75.93-9.35,103.87-20.22,164.01-24.28,0,0-5.92,8.04.6,6.87s13.48-4.19,13.48-4.19c0,0-1.55,16.69-30.01,21.59-28.46,4.9-112.44,11.64-155.59,17.22-43.15,5.58-56.61,13.38-78.69,15.61l.83-4.29-7.66-5.05Z"/>
      <g>
        <text class="cls-1" transform="translate(241.84 235.88) rotate(-10)"><tspan x="0" y="0">The</tspan><tspan class="cls-5" x="-208.51" y="118.99">B</tspan><tspan class="cls-3" x="-74.92" y="118.99">rotherhood</tspan></text>
        <text class="cls-2" transform="translate(241.84 235.88) rotate(-10)"><tspan x="0" y="0">The</tspan><tspan class="cls-5" x="-208.51" y="118.99">B</tspan><tspan class="cls-3" x="-74.92" y="118.99">rotherhood</tspan></text>
      </g>
    </g>
  </g>
</svg>