<?xml version="1.0" encoding="UTF-8"?>
<svg id="Capa_2" xmlns="http://www.w3.org/2000/svg" viewBox="0 0 171.59 124.62">
  <defs>
    <style>
      .cls-1 {
        fill: #fff;
      }
    </style>
  </defs>
  <g id="Capa_1-2" data-name="Capa_1">
    <g>
      <path class="cls-1" d="M34.42,69.01l19,19.02c4.31,4.31,11.29,4.31,15.6,0l34.61-34.61c4.31-4.31,11.29-4.31,15.59,0h0c4.31,4.31,4.31,11.29,0,15.59l-50.21,50.21c-4.31,4.31-11.29,4.31-15.6,0L3.23,69.01c-4.31-4.31-4.3-11.29,0-15.59L53.42,3.23c4.31-4.31,11.29-4.31,15.59,0h0c4.31,4.31,4.31,11.29,0,15.59l-34.6,34.6c-4.31,4.31-4.31,11.29,0,15.59Z"/>
      <path class="cls-1" d="M118.15,36.58l19.02,19c4.31,4.31,4.31,11.29,0,15.6l-34.61,34.61c-4.31,4.31-4.31,11.29,0,15.59h0c4.31,4.31,11.29,4.31,15.59,0l50.21-50.21c4.31-4.31,4.31-11.29,0-15.6L118.15,5.39c-4.31-4.31-11.29-4.3-15.59,0l-50.19,50.19c-4.31,4.31-4.31,11.29,0,15.59h0c4.31,4.31,11.29,4.31,15.59,0l34.6-34.6c4.31-4.31,11.29-4.31,15.59,0Z"/>
    </g>
  </g>
</svg>