<svg width="141" height="210" viewBox="0 0 141 210" fill="none" xmlns="http://www.w3.org/2000/svg">
<path d="M61.0166 0C63.8474 0 66.1597 2.31 66.1597 5.138V60.942C66.1597 63.784 63.8474 66.08 61.0166 66.08H5.1431C2.31229 66.094 0 63.784 0 60.956C0 27.314 27.3411 0 61.0166 0Z" fill="white"/>
<path d="M61.0166 71.9458H5.1431C2.30265 71.9458 0 74.2462 0 77.0838V132.902C0 135.739 2.30265 138.04 5.1431 138.04H61.0166C63.857 138.04 66.1597 135.739 66.1597 132.902V77.0838C66.1597 74.2462 63.857 71.9458 61.0166 71.9458Z" fill="white"/>
<path d="M5.1431 143.906H61.0025C63.8474 143.906 66.1456 146.216 66.1456 149.044V204.848C66.1456 207.69 63.8333 209.986 61.0025 209.986C27.3411 210 0 182.686 0 149.044C0 146.216 2.31229 143.906 5.1431 143.906Z" fill="white"/>
<path d="M79.2627 0C112.938 0 140.279 27.314 140.279 60.956C140.279 63.798 137.967 66.094 135.136 66.094H79.2767C76.4318 66.094 74.1336 63.784 74.1336 60.956V5.138C74.1196 2.31 76.4178 0 79.2627 0Z" fill="white"/>
<path d="M79.2627 71.9458H135.122C137.967 71.9458 140.265 74.2558 140.265 77.0838C140.265 110.726 112.924 138.04 79.2486 138.04C76.4038 138.04 74.1055 135.73 74.1055 132.902V77.0978C74.1055 74.2558 76.4178 71.9598 79.2486 71.9598L79.2627 71.9458Z" fill="white"/>
</svg>
