<?xml version="1.0" encoding="UTF-8"?>
<svg id="Capa_2" xmlns="http://www.w3.org/2000/svg" viewBox="0 0 46.71 48.61">
  <defs>
    <style>
      .cls-1 {
        fill: #fff;
      }
    </style>
  </defs>
  <g id="Capa_2-2" data-name="Capa_2">
    <g>
      <path class="cls-1" d="M26.95,47.16c1.81.93,3.85,1.45,6.03,1.45h.53c2.17,0,4.22-.52,6.02-1.45,4.27-2.19,7.19-6.63,7.19-11.76v-18.93c0-.99-.4-1.89-1.05-2.54-.65-.65-1.55-1.05-2.54-1.05-1.98,0-3.59,1.61-3.59,3.59v17.41c-.1,3.32-2.82,5.97-6.16,5.97h-.24c-3.41,0-6.17-2.76-6.17-6.16v-17.22c0-.99-.4-1.89-1.05-2.54-.65-.65-1.55-1.05-2.54-1.05-1.99,0-3.59,1.61-3.59,3.59v18.93c0,5.13,2.92,9.57,7.19,11.76"/>
      <path class="cls-1" d="M7.19,47.16c1.81.93,3.85,1.45,6.03,1.45h.53c2.17,0,4.22-.52,6.02-1.45,0,0,.98-.5,2.36-1.53,0,0-3.22-2.98-3.83-7.94-1.68,1.32-2.81,2.17-4.69,2.17h-.24c-3.41,0-6.17-2.76-6.17-6.16v-17.22c0-.99-.4-1.89-1.05-2.54-.65-.65-1.55-1.05-2.54-1.05-1.99,0-3.59,1.61-3.59,3.59v18.93c0,5.13,2.92,9.57,7.19,11.76"/>
      <path class="cls-1" d="M29.64,1.45C27.83.52,25.79,0,23.62,0h-.53c-2.17,0-4.22.52-6.02,1.45-4.27,2.19-7.19,6.63-7.19,11.76v18.93c0,.99.4,1.89,1.05,2.54.65.65,1.55,1.05,2.54,1.05,1.98,0,3.59-1.61,3.59-3.59V14.73c.1-3.32,2.82-5.97,6.16-5.97h.24c3.41,0,6.17,2.76,6.17,6.16v17.22c0,.99.4,1.89,1.05,2.54.65.65,1.55,1.05,2.54,1.05,1.99,0,3.59-1.61,3.59-3.59V13.21c0-5.13-2.92-9.57-7.19-11.76"/>
    </g>
  </g>
</svg>