<?xml version="1.0" encoding="UTF-8"?>
<svg id="Capa_2" xmlns="http://www.w3.org/2000/svg" viewBox="0 0 16.34 17">
  <defs>
    <style>
      .cls-1 {
        fill: #fff;
      }
    </style>
  </defs>
  <g id="Capa_2-2" data-name="Capa_2">
    <g>
      <path class="cls-1" d="M9.43,16.49c.63.32,1.35.51,2.11.51h.18c.76,0,1.48-.18,2.11-.51,1.49-.77,2.51-2.32,2.51-4.11v-6.62c0-.35-.14-.66-.37-.89-.23-.23-.54-.37-.89-.37-.69,0-1.26.56-1.26,1.26v6.09c-.04,1.16-.99,2.09-2.16,2.09h-.09c-1.19,0-2.16-.97-2.16-2.16v-6.02c0-.35-.14-.66-.37-.89-.23-.23-.54-.37-.89-.37-.69,0-1.26.56-1.26,1.26v6.62c0,1.79,1.02,3.35,2.51,4.11"/>
      <path class="cls-1" d="M2.51,16.49c.63.32,1.35.51,2.11.51h.18c.76,0,1.48-.18,2.11-.51,0,0,.34-.17.82-.54,0,0-1.12-1.04-1.34-2.78-.59.46-.98.76-1.64.76h-.09c-1.19,0-2.16-.97-2.16-2.16v-6.02c0-.35-.14-.66-.37-.89-.23-.23-.54-.37-.89-.37-.69,0-1.26.56-1.26,1.26v6.62c0,1.79,1.02,3.35,2.51,4.11"/>
      <path class="cls-1" d="M10.37.51C9.73.18,9.02,0,8.26,0h-.18c-.76,0-1.48.18-2.11.51-1.49.77-2.51,2.32-2.51,4.11v6.62c0,.35.14.66.37.89.23.23.54.37.89.37.69,0,1.26-.56,1.26-1.26v-6.09c.04-1.16.99-2.09,2.16-2.09h.09c1.19,0,2.16.97,2.16,2.16v6.02c0,.35.14.66.37.89.23.23.54.37.89.37.69,0,1.26-.56,1.26-1.26v-6.62c0-1.79-1.02-3.35-2.51-4.11"/>
    </g>
  </g>
</svg>