<?xml version="1.0" encoding="UTF-8"?>
<svg id="Capa_2" xmlns="http://www.w3.org/2000/svg" viewBox="0 0 645.42 135.5">
  <defs>
    <style>
      .cls-1 {
        fill: #4cc9f0;
      }

      .cls-2 {
        fill: #4361ee;
      }

      .cls-3 {
        fill: #f72585;
      }

      .cls-4 {
        fill: #fff;
      }

      .cls-5 {
        fill: #3a0ca3;
      }
    </style>
  </defs>
  <g id="_x34_">
    <g>
      <g>
        <path class="cls-4" d="M46.7,93.31l-23.87-49.58L1.19,54.15l34.64,71.97,10.87-32.8ZM57.56,126.13l-.04.08c-.48,1.01-1.09,1.91-1.79,2.71.74-.85,1.36-1.79,1.83-2.8M55.73,128.93s-.02.02-.03.03c.01-.01.02-.02.03-.03M55.69,128.97s-.02.02-.03.03c.01-.01.02-.02.03-.03M55.62,129.04s-.01.01-.02.02c0,0,.01-.01.02-.02M55.58,129.1s-.01.01-.02.02c0,0,.01-.01.02-.02M55.53,129.15s0,0-.01.01c0,0,0-.01.01-.01M55.47,129.21s0,0-.01.01c0,0,0-.01.01-.01M55.43,129.26s0,0-.01.01c0,0,0,0,.01-.01M55.37,129.32s0,0,0,0c0,0,0,0,0,0M55.32,129.37s0,0-.01.01c0,0,0,0,.01-.01M55.27,129.42s0,0,0,0c0,0,0,0,0,0M55.22,129.48s0,0,0,0c0,0,0,0,0,0M55.16,129.53s0,0,0,0c0,0,0,0,0,0M55.06,129.63s0,0,0,0t0,0M39.99,130.96s.02.01.03.02c0,0-.02-.01-.03-.02M40.04,130.99s.04.02.05.04c-.02-.01-.04-.02-.05-.04M40.1,131.03c.47.31.96.58,1.47.82-.02-.01-.05-.02-.07-.03-.49-.24-.96-.5-1.4-.79M41.58,131.86s.03.02.05.02c-.02,0-.03-.02-.05-.02M51.44,132.03c-1.48.63-3.07.97-4.7.98,1.57,0,3.17-.32,4.7-.98M46.66,133.01h0,0M46.74,133.01h-.04.04"/>
        <path class="cls-4" d="M70.67,43.52c-.03.07-.07.14-.1.2l-23.87,49.58,10.86,32.82,23.83-49.5-10.72-33.1Z"/>
        <path class="cls-4" d="M46.7,93.31l-10.82,22.48c-1.63,3.39-1.53,7.16-.05,10.32l.05.1h21.64l.04-.08c1.49-3.16,1.59-6.94-.04-10.34l-10.82-22.48"/>
        <path class="cls-4" d="M116.09,93.31l-23.83-49.5-10.86,32.82,23.87,49.58c.03.07.07.14.1.21l10.72-33.11Z"/>
        <path class="cls-4" d="M70.7,43.47s0,0,0,.01c0,.01-.01.03-.02.04-1.62,3.22-1.78,7.13-.1,10.62l10.82,22.48,10.82-22.48c1.63-3.39,1.53-7.18.04-10.34l-.04-.08-21.52-.25Z"/>
        <path class="cls-4" d="M126.95,126.13l-.04.08c-.52,1.07-1.17,2.04-1.93,2.87.81-.89,1.47-1.89,1.97-2.96M105.39,126.45s0,0,0,.01c0,0,0,0,0-.01M106.04,127.58s0,.01.01.02c0,0,0-.01-.01-.02M106.07,127.63s.01.02.02.03c0-.01-.01-.02-.02-.03M106.1,127.68s.05.08.08.11c-.03-.04-.05-.07-.08-.11M106.18,127.8c1.3,1.89,3.07,3.32,5.08,4.2-.13-.06-.26-.12-.39-.18-1.96-.94-3.55-2.35-4.7-4.03M124.97,129.09c-.05.05-.09.1-.14.15.05-.05.09-.1.14-.15M124.82,129.25s-.07.07-.1.11c.03-.03.07-.07.1-.11M124.72,129.36s-.02.02-.03.03c.01-.01.02-.02.03-.03M124.67,129.4s-.06.06-.1.1c.03-.03.06-.06.1-.1M124.56,129.51s-.02.02-.03.03c0-.01.02-.02.03-.03M124.52,129.56s-.03.03-.05.05c.02-.01.03-.03.05-.05M124.45,129.62s-.02.02-.02.02c0,0,.02-.02.02-.02M124.4,129.67s-.01.01-.02.02c0,0,.01-.01.02-.02M124.34,129.73s-.01.01-.02.02c0,0,.01-.01.02-.02M124.29,129.77s-.01.01-.02.02c0,0,.02-.01.02-.02M124.24,129.83s-.01.01-.02.02c0,0,.01-.01.02-.02M124.18,129.88s-.01.01-.02.02c0,0,.01-.01.02-.02M124.12,129.93s0,0-.01,0c0,0,0,0,.01,0M124.06,129.98s0,0,0,0c0,0,0,0,0,0M124.01,130.03s0,0,0,0c0,0,0,0,0,0M120.91,132s0,0-.01,0c0,0,0,0,.01,0M111.29,132.01s.01,0,.02,0c0,0-.01,0-.02,0M120.86,132.02c-1.48.64-3.09.98-4.73.99,1.58,0,3.19-.32,4.73-.99M116.04,133.01h0,0M116.13,133.01h-.04.04"/>
        <polygon class="cls-4" points="139.96 43.73 116.09 93.31 126.95 126.13 161.6 54.14 139.96 43.73"/>
        <path class="cls-4" d="M116.09,93.31l-10.82,22.48c-1.62,3.36-1.59,6.62-.5,9.39l22.17.98c1.52-3.2,1.6-7-.02-10.38l-10.82-22.48"/>
        <circle class="cls-4" cx="12.01" cy="48.94" r="12.01"/>
        <circle class="cls-4" cx="46.7" cy="121" r="12.01" transform="translate(-42.75 27.08) rotate(-22.5)"/>
        <circle class="cls-1" cx="150.78" cy="48.94" r="12.01"/>
        <circle class="cls-4" cx="116.09" cy="121" r="12.01" transform="translate(-37.47 53.63) rotate(-22.5)"/>
        <circle class="cls-4" cx="81.4" cy="48.94" r="12.01"/>
      </g>
      <g>
        <path class="cls-4" d="M199.48,85.21h0c0,4.46.82,8.48,2.26,11.87,1.44,3.4,3.47,6.19,6.09,8.43,1.75,1.49,3.79,2.75,6.22,3.73,3.23,1.3,7.17,2.12,12.01,2.13h.04c3,0,6.36-.65,9.55-1.89,3.21-1.24,6.21-3.08,8.56-5.18l16.03,17.89c-4.68,4.19-10.09,7.43-15.89,9.68-5.79,2.25-11.98,3.52-18.3,3.53h-.01c-6.39,0-12.44-.93-17.97-2.76-5.54-1.83-10.56-4.56-14.87-8.03-2.87-2.31-5.42-4.94-7.61-7.81-2.93-3.83-5.22-8.08-6.87-12.57-2.2-6-3.27-12.42-3.27-19h24.02Z"/>
        <path class="cls-4" d="M223.7,35.03h-.06c-26.31,0-48.18,22.52-48.18,50.18h24.02c0-14.53,11.23-26.15,24.17-26.16,10.64,0,18.53,5.47,22.35,14.15l26.44,12.01c0-27.99-20.23-50.18-48.75-50.18"/>
        <path class="cls-4" d="M187.47,73.2c-6.63,0-12.01,5.38-12.01,12.01h0c0,6.63,5.38,12.01,12.01,12.01s12.01-5.38,12.01-12.01-5.38-12.01-12.01-12.01"/>
        <path class="cls-4" d="M246.01,73.2h-27.12c-6.63,0-12.01,5.38-12.01,12.01s5.38,12.01,12.01,12.01h41.55l-14.43-24.02Z"/>
        <path class="cls-4" d="M260.44,73.2h-14.43c.03.07.06.14.09.21,1.48,3.44,2.33,7.43,2.33,11.8,0,6.63,5.38,12.01,12.01,12.01h0c6.63,0,12.01-5.38,12.01-12.01h0c0-6.63-5.38-12.01-12.01-12.01"/>
        <circle class="cls-3" cx="252.23" cy="113.23" r="12.01"/>
      </g>
      <g>
        <polygon class="cls-4" points="341.18 126.13 375.85 54.12 354.21 43.7 330.34 93.28 341.18 126.13"/>
        <polygon class="cls-4" points="330.34 93.28 306.47 43.7 284.82 54.12 319.47 126.1 330.34 93.28"/>
        <path class="cls-4" d="M330.34,93.28l10.82,22.48c5.48,11.38-8.25,22.41-18.24,14.66-4.29-3.33-5.92-9.43-3.4-14.66l10.82-22.48"/>
        <circle class="cls-4" cx="295.65" cy="48.91" r="12.01" transform="translate(200.01 332.9) rotate(-80.78)"/>
        <circle class="cls-4" cx="330.34" cy="120.97" r="12.01"/>
        <circle class="cls-2" cx="365.03" cy="48.91" r="12.01" transform="translate(258.28 401.39) rotate(-80.78)"/>
      </g>
      <g>
        <rect class="cls-4" x="392.82" y="48.43" width="24.02" height="72.57"/>
        <circle class="cls-3" cx="404.83" cy="12.01" r="12.01"/>
        <circle class="cls-4" cx="404.83" cy="121" r="12.01"/>
        <circle class="cls-4" cx="404.83" cy="48.43" r="12.01"/>
      </g>
      <g>
        <rect class="cls-4" x="439.79" y="13.32" width="24.02" height="108.92"/>
        <circle class="cls-5" cx="451.8" cy="13.32" r="12.01"/>
        <path class="cls-4" d="M488.42,36.4c-8.68,0-17.15,2.34-24.61,6.81v42.59c.15-25.04,31.43-34.77,44.97-14.22,11.15,16.91-.62,39.9-20.35,39.91h0c-13.62,0-24.54-11.4-24.62-25.37v36.13c0,2.02-.5,3.93-1.38,5.6,22.13,14.28,51.65,8.09,66.41-14.28,21.71-32.93-1.65-77.15-40.42-77.15"/>
        <path class="cls-4" d="M463.81,43.21c-6.34,3.79-11.72,8.98-15.78,15.14-2.6,3.95-4.66,8.3-6.07,12.95-1.41,4.64-2.17,9.58-2.16,14.65,0,6.77,1.34,13.28,3.79,19.19,3.67,8.88,9.78,16.43,17.54,21.81.43.3.87.59,1.32.88.88-1.67,1.38-3.58,1.38-5.6v-36.13c0-.05,0-.1,0-.16s0-.1,0-.15v-42.59"/>
        <circle class="cls-4" cx="451.8" cy="122.31" r="12.01"/>
      </g>
      <g>
        <path class="cls-4" d="M572.45,85.21h0c0,4.46.82,8.48,2.26,11.87,1.44,3.4,3.47,6.19,6.09,8.43,1.75,1.49,3.79,2.75,6.22,3.73,3.23,1.3,7.17,2.12,12.01,2.13h.04c3,0,6.36-.65,9.55-1.89,3.21-1.24,6.21-3.08,8.56-5.18l16.03,17.89c-4.68,4.19-10.09,7.43-15.89,9.68-5.79,2.25-11.98,3.52-18.3,3.53h-.01c-6.39,0-12.44-.93-17.97-2.76-5.54-1.83-10.56-4.56-14.87-8.03-2.87-2.31-5.42-4.94-7.61-7.81-2.93-3.83-5.22-8.08-6.87-12.57-2.2-6-3.27-12.42-3.27-19h24.02Z"/>
        <path class="cls-4" d="M596.67,35.03h-.06c-26.31,0-48.18,22.52-48.18,50.18h24.02c0-14.53,11.23-26.15,24.17-26.16,10.64,0,18.53,5.47,22.35,14.15l26.44,12.01c0-27.99-20.23-50.18-48.75-50.18"/>
        <path class="cls-1" d="M560.44,73.2c-6.63,0-12.01,5.38-12.01,12.01h0c0,6.63,5.38,12.01,12.01,12.01s12.01-5.38,12.01-12.01-5.38-12.01-12.01-12.01"/>
        <path class="cls-4" d="M618.98,73.2h-27.12c-6.63,0-12.01,5.38-12.01,12.01s5.38,12.01,12.01,12.01h41.55l-14.43-24.02Z"/>
        <path class="cls-4" d="M633.41,73.2h-14.43c.03.07.06.14.09.21,1.48,3.44,2.33,7.43,2.33,11.8,0,6.63,5.38,12.01,12.01,12.01h0c6.63,0,12.01-5.38,12.01-12.01h0c0-6.63-5.38-12.01-12.01-12.01"/>
        <circle class="cls-4" cx="625.19" cy="113.23" r="12.01"/>
      </g>
    </g>
  </g>
</svg>