<?xml version="1.0" encoding="UTF-8"?>
<svg id="Capa_2" xmlns="http://www.w3.org/2000/svg" viewBox="0 0 1753.98 1048.39">
  <defs>
    <style>
      .cls-1 {
        fill: #fff;
      }
    </style>
  </defs>
  <g id="Capa_1-2" data-name="Capa_1">
    <g>
      <path id="S" class="cls-1" d="M1559.56,304.52c3.72-20.81,8.53-41.04,10.66-61.55,1.87-18.01,3.22-36.73.41-54.44-5.95-37.48-39.9-38.94-62.67-28.98-16.83,7.36-25.24,22.4-30.29,38.61-11.39,36.63-16.72,74.06-5.29,111.72,7.93,26.14,23.42,48.35,40.13,69.64,33.26,42.4,67.43,84.11,99.55,127.36,26.54,35.73,47.2,74.96,59.55,118.15,8.72,30.51,12.45,61.62,10.98,93.22-3.04,65.24-15.45,128.51-42.53,188.29-30.95,68.32-82.1,113.07-155.47,131.55-44.13,11.11-89.04,11.89-133.86,8.57-36.5-2.71-71.94-11.53-103.74-31.11-42.38-26.1-65.43-64.85-74.13-113.11-9.04-50.13-2.62-99.41,7.63-148.52q2.91-13.97,17.04-13.97c54.83,0,109.67,0,164.5,0h10.38c-2.75,14.58-5.52,28.18-7.84,41.85-4.18,24.58-8.51,49.17-4.53,74.28,5.28,33.36,29.05,42.03,56.28,38.45,19.57-2.58,32.99-14.27,42.5-31.03,11.83-20.84,17.11-43.82,21.23-67.04,2.93-16.48,5.89-33.12,6.64-49.79,1.89-42.52-11.67-81.12-35.96-115.18-22.29-31.25-46.97-60.84-71.26-90.62-32.68-40.07-65.5-79.95-85.55-128.4-17.32-41.85-22.16-85.36-18.15-130.24,3.65-40.87,10.6-81.06,23.76-119.98,14.32-42.36,35.38-80.49,69.93-110.18,30.03-25.81,65.01-40.92,103.6-46.89,23.43-3.62,47.41-5.36,71.12-5.18,40.04.32,79.45,6.21,115.88,24.2,52.87,26.11,80.42,70.35,89.94,127.4,4.94,29.59,5.08,59.21,1.6,88.81-2.52,21.34-6.53,42.51-9.93,64.1h-182.09Z"/>
      <path id="A" class="cls-1" d="M1080.89,1032.21h-191.97c7.46-82.6,14.87-164.67,22.39-248.03-2.98,0-5.67,0-8.36,0-35.15,0-70.3.12-105.44-.1-5.62-.04-8.18,1.32-9.95,7.21-18.84,62.81-38.12,125.49-57.2,188.23-4.65,15.27-9.28,30.55-13.44,45.96-1.53,5.66-4.39,7.52-10.03,7.45-26.14-.35-52.28-.56-78.41-.5-33.73.08-67.46.49-101.18.67-3.87.02-7.75-.45-12.63-.75,6.19-18.32,12.05-35.75,17.98-53.16,21.41-62.86,42.83-125.71,64.28-188.55,20.73-60.75,41.51-121.49,62.25-182.24,26.07-76.36,52.13-152.72,78.19-229.08,30.06-88.07,60.14-176.13,90.18-264.2,10.58-31.03,21.11-62.08,31.51-93.17,1.44-4.3,2.82-7.17,8.4-7.16,94.76.18,189.52.13,284.27.16,1.09,0,2.18.23,4.59.5-.64,10.05-1.22,19.95-1.91,29.84-2.25,32.16-4.48,64.32-6.82,96.48-2.74,37.71-5.58,75.41-8.38,113.11-2.82,37.98-5.62,75.97-8.44,113.95-2.8,37.7-5.63,75.39-8.42,113.09-2.84,38.28-5.65,76.55-8.47,114.83-2.37,32.13-4.73,64.25-7.11,96.38-3.23,43.58-6.48,87.15-9.74,130.72-2.8,37.43-5.57,74.87-8.46,112.3-2.46,31.79-5.07,63.56-7.68,96.07ZM929.85,615.06c13.48-142.66,26.92-284.94,40.39-427.46-4.69-1.98-7.13-.92-8.4,4.31-3.44,14.14-7.21,28.2-11.09,42.23-18.08,65.29-36.06,130.6-54.42,195.8-13.12,46.61-26.81,93.07-40.2,139.6-4.32,15.02-8.51,30.09-12.87,45.51h86.6Z"/>
      <path id="Z" class="cls-1" d="M260.16,865.29h245.62c-3.14,9.66-5.97,18.53-8.9,27.36-14.84,44.7-29.79,89.37-44.42,134.14-1.56,4.77-3.93,5.72-8.46,5.7-28.4-.15-56.79-.06-85.19.02-46.66.12-93.33.36-139.99.42-68.31.08-136.63.06-204.94.03-4.39,0-8.79-.43-13.87-.7,4.26-20.64,8.28-40.35,12.42-60.04,3.39-16.15,5.57-32.72,10.78-48.27,5.65-16.84,13.39-33.13,21.61-48.94,41.66-80.16,83.77-160.08,125.72-240.09,35.56-67.84,71.13-135.67,106.66-203.53,36.56-69.82,73.07-139.66,109.6-209.49,5.46-10.44,11-20.84,16.43-31.29.98-1.89,1.62-3.95,2.95-7.24h-227.97c.99-4.91,1.7-8.59,2.48-12.24,9.17-43.3,18.35-86.6,27.56-129.89.82-3.84,2.1-7.57,2.93-11.4q3.25-14.93,18-14.94c138.06-.01,276.13-.02,414.19-.04,2.49,0,4.99,0,8.67,0-1.49,8.35-2.65,15.94-4.22,23.44-7.65,36.43-14.81,72.97-23.47,109.16-2.74,11.47-9.19,22.16-14.63,32.85-47.09,92.5-94.32,184.94-141.55,277.37-52.21,102.17-104.49,204.3-156.68,306.47-16.96,33.2-33.74,66.49-51.31,101.13Z"/>
    </g>
  </g>
</svg>