<svg width="28" height="38" viewBox="0 0 28 38" fill="none" xmlns="http://www.w3.org/2000/svg">
<g filter="url(#filter0_f_786_1261)">
<path d="M12.6988 4C13.1039 4 13.4328 4.34025 13.4328 4.7593V12.9977C13.4328 13.4168 13.1039 13.7571 12.6988 13.7571H4.73407C4.32895 13.7571 4 13.4168 4 12.9977C4 8.03183 7.89785 4 12.6988 4Z" fill="#A855F7"/>
<path d="M12.6988 14.6216H4.73407C4.32866 14.6216 4 14.9615 4 15.3809V23.6193C4 24.0387 4.32866 24.3786 4.73407 24.3786H12.6988C13.1042 24.3786 13.4328 24.0387 13.4328 23.6193V15.3809C13.4328 14.9615 13.1042 14.6216 12.6988 14.6216Z" fill="#A855F7"/>
<path d="M4.73407 25.2432H12.6988C13.1039 25.2432 13.4328 25.5834 13.4328 26.0025V34.2409C13.4328 34.66 13.1039 35.0002 12.6988 35.0002C7.89785 35.0002 4 30.9687 4 26.0028C4 25.5834 4.32895 25.2432 4.73407 25.2432Z" fill="#A855F7"/>
<path d="M15.3015 4C20.1024 4 24.0002 8.03183 24.0002 12.9977C24.0002 13.4168 23.6713 13.7571 23.2661 13.7571H15.3015C14.8963 13.7571 14.5674 13.4168 14.5674 12.9977V4.7593C14.5674 4.34025 14.8963 4 15.3015 4Z" fill="#A855F7"/>
<path d="M15.3015 14.6216H23.2661C23.6713 14.6216 24.0002 14.9618 24.0002 15.3809C24.0002 20.3468 20.1024 24.3786 15.3015 24.3786C14.8963 24.3786 14.5674 24.0384 14.5674 23.6193V15.3809C14.5674 14.9618 14.8963 14.6216 15.3015 14.6216Z" fill="#A855F7"/>
</g>
<path d="M12.6988 4C13.1039 4 13.4328 4.34025 13.4328 4.7593V12.9977C13.4328 13.4168 13.1039 13.7571 12.6988 13.7571H4.73407C4.32895 13.7571 4 13.4168 4 12.9977C4 8.03183 7.89785 4 12.6988 4Z" fill="url(#paint0_linear_786_1261)"/>
<path d="M12.6988 14.6216H4.73407C4.32866 14.6216 4 14.9615 4 15.3809V23.6193C4 24.0387 4.32866 24.3786 4.73407 24.3786H12.6988C13.1042 24.3786 13.4328 24.0387 13.4328 23.6193V15.3809C13.4328 14.9615 13.1042 14.6216 12.6988 14.6216Z" fill="url(#paint1_linear_786_1261)"/>
<path d="M4.73407 25.2432H12.6988C13.1039 25.2432 13.4328 25.5834 13.4328 26.0025V34.2409C13.4328 34.66 13.1039 35.0002 12.6988 35.0002C7.89785 35.0002 4 30.9687 4 26.0028C4 25.5834 4.32895 25.2432 4.73407 25.2432Z" fill="url(#paint2_linear_786_1261)"/>
<path d="M15.3015 4C20.1024 4 24.0002 8.03183 24.0002 12.9977C24.0002 13.4168 23.6713 13.7571 23.2661 13.7571H15.3015C14.8963 13.7571 14.5674 13.4168 14.5674 12.9977V4.7593C14.5674 4.34025 14.8963 4 15.3015 4Z" fill="url(#paint3_linear_786_1261)"/>
<path d="M15.3015 14.6216H23.2661C23.6713 14.6216 24.0002 14.9618 24.0002 15.3809C24.0002 20.3468 20.1024 24.3786 15.3015 24.3786C14.8963 24.3786 14.5674 24.0384 14.5674 23.6193V15.3809C14.5674 14.9618 14.8963 14.6216 15.3015 14.6216Z" fill="url(#paint4_linear_786_1261)"/>
<defs>
<filter id="filter0_f_786_1261" x="0" y="0" width="28" height="39" filterUnits="userSpaceOnUse" color-interpolation-filters="sRGB">
<feFlood flood-opacity="0" result="BackgroundImageFix"/>
<feBlend mode="normal" in="SourceGraphic" in2="BackgroundImageFix" result="shape"/>
<feGaussianBlur stdDeviation="2" result="effect1_foregroundBlur_786_1261"/>
</filter>
<linearGradient id="paint0_linear_786_1261" x1="15.791" y1="9.0359" x2="1.17015" y2="9.0359" gradientUnits="userSpaceOnUse">
<stop stop-color="#F1F5F9"/>
<stop offset="1" stop-color="#F1F5F9" stop-opacity="0.372549"/>
</linearGradient>
<linearGradient id="paint1_linear_786_1261" x1="15.791" y1="19.6575" x2="1.17015" y2="19.6575" gradientUnits="userSpaceOnUse">
<stop stop-color="#F1F5F9"/>
<stop offset="1" stop-color="#F1F5F9" stop-opacity="0.372549"/>
</linearGradient>
<linearGradient id="paint2_linear_786_1261" x1="15.791" y1="30.2791" x2="1.17015" y2="30.2791" gradientUnits="userSpaceOnUse">
<stop stop-color="#F1F5F9"/>
<stop offset="1" stop-color="#F1F5F9" stop-opacity="0.372549"/>
</linearGradient>
<linearGradient id="paint3_linear_786_1261" x1="26.3584" y1="9.0359" x2="11.7375" y2="9.0359" gradientUnits="userSpaceOnUse">
<stop stop-color="#F1F5F9"/>
<stop offset="1" stop-color="#F1F5F9" stop-opacity="0.372549"/>
</linearGradient>
<linearGradient id="paint4_linear_786_1261" x1="26.3584" y1="19.6575" x2="11.7375" y2="19.6575" gradientUnits="userSpaceOnUse">
<stop stop-color="#F1F5F9"/>
<stop offset="1" stop-color="#F1F5F9" stop-opacity="0.372549"/>
</linearGradient>
</defs>
</svg>
